<?xml version="1.0" encoding="UTF-8"?>
<svg id="Layer_1" data-name="Layer 1" xmlns="http://www.w3.org/2000/svg" xmlns:xlink="http://www.w3.org/1999/xlink" viewBox="0 0 1579.44 358.71">
  <defs>
    <style>
      .cls-1 {
        fill: url(#linear-gradient-8);
      }

      .cls-2 {
        fill: url(#linear-gradient-7);
      }

      .cls-3 {
        fill: url(#linear-gradient-5);
      }

      .cls-4 {
        fill: url(#linear-gradient-6);
      }

      .cls-5 {
        fill: url(#linear-gradient-9);
      }

      .cls-6 {
        fill: url(#linear-gradient-4);
      }

      .cls-7 {
        fill: url(#linear-gradient-3);
      }

      .cls-8 {
        fill: url(#linear-gradient-2);
      }

      .cls-9 {
        fill: url(#linear-gradient);
      }

      .cls-10 {
        fill: #fff;
        opacity: .4;
      }

      .cls-11 {
        fill: url(#linear-gradient-10);
      }

      .cls-12 {
        fill: url(#linear-gradient-11);
      }

      .cls-13 {
        fill: url(#linear-gradient-12);
      }

      .cls-14 {
        fill: url(#linear-gradient-13);
      }

      .cls-15 {
        fill: url(#linear-gradient-19);
      }

      .cls-16 {
        fill: url(#linear-gradient-14);
      }

      .cls-17 {
        fill: url(#linear-gradient-15);
      }

      .cls-18 {
        fill: url(#linear-gradient-16);
      }

      .cls-19 {
        fill: url(#linear-gradient-17);
      }

      .cls-20 {
        fill: url(#linear-gradient-18);
      }
    </style>
    <linearGradient id="linear-gradient" x1="122.63" y1="-21.61" x2="122.63" y2="320.03" gradientUnits="userSpaceOnUse">
      <stop offset="0" stop-color="#50b1db"/>
      <stop offset="1" stop-color="#b0dbf0"/>
    </linearGradient>
    <linearGradient id="linear-gradient-2" x1="384.19" y1="-21.61" x2="384.19" y2="320.03" xlink:href="#linear-gradient"/>
    <linearGradient id="linear-gradient-3" x1="943.13" y1="-21.58" x2="943.13" y2="319.98" xlink:href="#linear-gradient"/>
    <linearGradient id="linear-gradient-4" x1="1223.98" y1="-21.61" x2="1223.98" y2="320.03" xlink:href="#linear-gradient"/>
    <linearGradient id="linear-gradient-5" x1="652.7" y1="-21.61" x2="652.7" y2="320.03" xlink:href="#linear-gradient"/>
    <linearGradient id="linear-gradient-6" x1="1006.25" y1="66.32" x2="906.19" y2="66.32" gradientTransform="translate(1577.44) rotate(-180) scale(1 -1)" gradientUnits="userSpaceOnUse">
      <stop offset="0" stop-color="#1d8bb2"/>
      <stop offset=".07" stop-color="#2691b8" stop-opacity=".87"/>
      <stop offset=".23" stop-color="#399dc4" stop-opacity=".61"/>
      <stop offset=".4" stop-color="#49a7ce" stop-opacity=".39"/>
      <stop offset=".55" stop-color="#55afd5" stop-opacity=".22"/>
      <stop offset=".71" stop-color="#5eb5db" stop-opacity=".1"/>
      <stop offset=".86" stop-color="#63b8de" stop-opacity=".02"/>
      <stop offset="1" stop-color="#65bae0" stop-opacity="0"/>
    </linearGradient>
    <linearGradient id="linear-gradient-7" x1="958.96" y1="190.48" x2="1146.71" y2="362.23" xlink:href="#linear-gradient-6"/>
    <linearGradient id="linear-gradient-8" x1="1068.56" y1="110.66" x2="951.8" y2="11.06" gradientTransform="matrix(1,0,0,1,0,0)" xlink:href="#linear-gradient-6"/>
    <linearGradient id="linear-gradient-9" x1="204.13" y1="66.32" x2="104.07" y2="66.32" gradientTransform="matrix(1,0,0,1,0,0)" xlink:href="#linear-gradient-6"/>
    <linearGradient id="linear-gradient-10" x1="190.16" y1="169.16" x2="293.73" y2="263.9" gradientTransform="matrix(1,0,0,1,0,0)" xlink:href="#linear-gradient-6"/>
    <linearGradient id="linear-gradient-11" x1="6.25" y1="120.66" x2="176.4" y2="181.97" gradientTransform="matrix(1,0,0,1,0,0)" xlink:href="#linear-gradient-6"/>
    <linearGradient id="linear-gradient-12" x1="1107.48" y1="125.75" x2="1370.57" y2="199.07" gradientTransform="matrix(1,0,0,1,0,0)" xlink:href="#linear-gradient-6"/>
    <linearGradient id="linear-gradient-13" x1="285.75" y1="63.4" x2="490.56" y2="21.62" gradientTransform="matrix(1,0,0,1,0,0)" xlink:href="#linear-gradient-6"/>
    <linearGradient id="linear-gradient-14" x1="478.31" y1="-1286.72" x2="682.98" y2="-1328.47" gradientTransform="translate(960.84 -1094.36) rotate(-180)" xlink:href="#linear-gradient-6"/>
    <linearGradient id="linear-gradient-15" x1="808.44" y1="120.61" x2="978.32" y2="181.81" xlink:href="#linear-gradient-6"/>
    <linearGradient id="linear-gradient-16" x1="850.68" y1="127.54" x2="1018.7" y2="127.54" gradientTransform="matrix(1,0,0,1,0,0)" xlink:href="#linear-gradient-6"/>
    <linearGradient id="linear-gradient-17" x1="1478.79" y1="-21.61" x2="1478.79" y2="320.03" xlink:href="#linear-gradient"/>
    <linearGradient id="linear-gradient-18" x1="1380.35" y1="63.4" x2="1585.16" y2="21.62" gradientTransform="matrix(1,0,0,1,0,0)" xlink:href="#linear-gradient-6"/>
    <linearGradient id="linear-gradient-19" x1="-616.29" y1="-1286.72" x2="-411.62" y2="-1328.47" gradientTransform="translate(960.84 -1094.36) rotate(-180)" xlink:href="#linear-gradient-6"/>
  </defs>
  <path class="cls-9" d="M183.7,21.98c-18.04-10.45-38.71-16.89-61.07-16.89C54.94,5.1.12,59.93.1,127.61c.02,67.69,54.84,122.52,122.53,122.54,22.36,0,43.03-6.44,61.07-16.89v21.84h61.46V.14h-61.46v21.84ZM122.63,188.69c-33.72-.06-61.01-27.35-61.07-61.08.06-33.71,27.35-61.01,61.07-61.07,33.71.06,61.01,27.36,61.07,61.07-.06,33.72-27.36,61.02-61.07,61.08Z"/>
  <path class="cls-8" d="M405.57,97.1h-42.75c-9.84-.02-17.8-7.97-17.81-17.81.02-9.84,7.97-17.8,17.81-17.81h91.3V0h-91.3c-43.8.01-79.26,35.48-79.28,79.28.01,43.8,35.48,79.26,79.28,79.28h42.75c9.82.02,17.8,8,17.81,17.81-.02,9.83-8,17.81-17.81,17.83h-91.3v61.46h91.3c43.8-.02,79.26-35.49,79.28-79.29-.02-43.8-35.48-79.25-79.28-79.28Z"/>
  <path class="cls-7" d="M943.13.03c-72.14,0-130.38,59.97-127.54,132.74,2.55,65.26,55.08,118.71,120.28,122.34,46.18,2.57,87.23-19.58,111.58-54.05l-57.68-26.51c-11.78,12.03-28.47,19.39-46.64,19.39-25.28,0-47.13-14.48-58.17-35.59h155.09c16.73,0,30.68-13.39,30.73-30.12,0-.11,0-.21,0-.32v-.25C1070.77,57.22,1013.82.03,943.13.03ZM943.13,61.39c25.53,0,47.13,14.48,58.42,35.59h-116.6c11.05-21.11,32.89-35.59,58.17-35.59Z"/>
  <path class="cls-6" d="M1283.51,174.78c-13.04,13-29.83,19.39-46.92,19.42-17.09-.03-33.89-6.42-46.93-19.44-13.01-13.04-19.4-29.84-19.44-46.93.03-17.09,6.42-33.89,19.44-46.92,13.04-13.02,29.85-19.41,46.93-19.44,17.08.03,33.89,6.42,46.93,19.44,1.35,1.31,3.31,3.81,6.2,7.77l49.48-36.46c-2.82-3.79-6.55-9.08-12.22-14.77C1302.1,12.54,1269.2-.03,1236.59,0c-32.61-.03-65.51,12.54-90.39,37.44-24.9,24.87-37.48,57.77-37.44,90.39-.03,32.61,12.54,65.51,37.44,90.39,24.89,24.9,57.78,37.47,90.39,37.43,32.61.03,65.5-12.53,90.39-37.43l.04-.04c5.63-5.68,9.35-10.94,12.16-14.7l-49.43-36.53c-2.9,3.96-4.86,6.46-6.24,7.82Z"/>
  <g>
    <path class="cls-3" d="M652.7,5.08c-22.36,0-43.04,6.44-61.08,16.9V.14h-61.46v358.58h61.46v-125.46c18.04,10.46,38.72,16.89,61.08,16.9,67.68-.02,122.51-54.85,122.53-122.54-.02-67.68-54.85-122.51-122.53-122.53ZM652.7,188.69c-33.72-.06-61.02-27.36-61.08-61.08.06-33.71,27.36-61.01,61.08-61.07,33.71.06,61.01,27.36,61.07,61.07-.06,33.72-27.36,61.02-61.07,61.08Z"/>
    <path class="cls-10" d="M591.63,22.07v37.12c15.74-14.26,36.63-22.87,59.25-23.36,6.64,0,13.03.49,19.42,1.97,2.46.49,4.67.98,7.13,1.48.49,0,.98.24,1.48.49,45.48,12.05,79.16,53.84,79.16,103.26,0,46.47-29.75,86.05-71.05,100.8-1.72.74-3.44,1.23-5.16,1.72-2.95.98-6.15,1.97-9.34,2.46-.49.25-.98.49-1.48.49,59.01-8.6,104.24-59.5,104.24-120.96,0-61.71-45.48-112.6-104.98-120.96-1.72-.25-3.44-.49-5.41-.74-3.93-.49-8.11-.74-12.29-.74-22.37,0-43.02,6.39-60.97,16.96Z"/>
    <path class="cls-10" d="M530.16,127.54v231.17s30.73,0,30.73,0v-150.78c-19.18-21.39-30.73-49.42-30.73-80.39Z"/>
    <path class="cls-10" d="M530.16.2v127.35c0,30.96,11.54,59.01,30.73,80.39,8.62,10.08,19.18,18.67,30.76,25.33,16.43,9.57,35.1,15.72,55.24,16.7h.07c.27.03.54.07.78.07,1.63.1,3.19.14,4.86.14,33.2,0,62.3-17.72,78.39-44.2.03-.07.1-.14.14-.24.65-1.05,1.26-2.14,1.87-3.23.14-.27.31-.54.44-.81.61-1.15,1.22-2.31,1.77-3.5.07-.07.07-.14.1-.2.65-1.29,1.26-2.65,1.8-3.97.61-1.39,1.15-2.78,1.66-4.18.92-2.55,1.73-5.13,2.41-7.74.31-1.09.58-2.14.81-3.23.07-.27.14-.51.17-.78.2-.81.37-1.63.51-2.44.17-.78.31-1.53.41-2.31.14-.68.24-1.36.34-2.07.1-.71.2-1.39.24-2.1.14-.75.2-1.46.24-2.21.31-2.85.44-5.77.44-8.69,0-44.92-32.18-82.26-74.76-90.14,34.8,7.16,60.94,37.99,60.94,74.89,0,36.94-26.21,67.76-61.04,74.89-.31.07-.61.14-.92.17-4.69.92-9.54,1.39-14.5,1.39-.24,0-.48,0-.71-.03-.24.03-.51.03-.75.03-1.97,0-3.9,0-5.64-.24h-.07c-47.9-2.99-86-42.81-86-91.7V.2s-30.73,0-30.73,0Z"/>
    <path class="cls-4" d="M591.67,22.07v105.47c0-33.68,27.29-60.97,60.97-60.97,6.15,0,12.05.98,17.7,2.7V6.58c-5.66-.98-11.8-1.48-17.7-1.48-22.37,0-43.02,6.39-60.97,16.96Z"/>
    <path class="cls-2" d="M591.63,233.26v125.45h-61.46V127.61c.01,45.33,24.89,84.45,61.46,105.65Z"/>
  </g>
  <path class="cls-1" d="M1035.67,96.74h-34.61c-7.37-13.99-19.39-25.28-34.37-30.93V2.48c9.08,1.72,17.92,4.17,26.26,7.61.25.24.49.49.98.49,4.17,1.96,8.35,3.93,12.52,6.38l.25.25c3.68,1.96,7.36,4.42,10.8,6.87.49.24.74.49.98.49,3.68,2.95,7.12,5.65,10.31,8.59,3.44,3.19,6.63,6.38,9.82,9.82,2.7,3.19,5.4,6.38,7.86,9.82,2.95,4.17,5.65,8.34,8.1,12.76,7.86,13.99-2.7,31.17-18.9,31.17Z"/>
  <path class="cls-10" d="M183.65,22.07v37.12c-15.74-14.26-36.63-22.87-59.25-23.36-6.64,0-13.03.49-19.42,1.97-2.46.49-4.67.98-7.13,1.48-.49,0-.98.24-1.48.49-45.48,12.05-79.16,53.84-79.16,103.26,0,46.47,29.75,86.05,71.05,100.8,1.72.74,3.44,1.23,5.16,1.72,2.95.98,6.15,1.97,9.34,2.46.49.25.98.49,1.48.49C45.24,239.89,0,189,0,127.54S45.48,14.94,104.98,6.58c1.72-.25,3.44-.49,5.41-.74,3.93-.49,8.11-.74,12.29-.74,22.37,0,43.02,6.39,60.97,16.96Z"/>
  <path class="cls-10" d="M245.12,127.54v127.6h-30.73v-47.2c19.18-21.39,30.73-49.42,30.73-80.39Z"/>
  <path class="cls-5" d="M183.65,22.07v105.47c0-33.68-27.29-60.97-60.97-60.97-6.15,0-12.05.98-17.7,2.7V6.58c5.66-.98,11.8-1.48,17.7-1.48,22.37,0,43.02,6.39,60.97,16.96Z"/>
  <path class="cls-11" d="M183.7,233.26v21.84h61.46v-127.49c-.01,45.33-24.89,84.45-61.46,105.65Z"/>
  <path class="cls-10" d="M245.12.2v127.35c0,30.96-11.54,59.01-30.73,80.39-8.62,10.08-19.18,18.67-30.76,25.33-16.43,9.57-35.1,15.72-55.24,16.7h-.07c-.27.03-.54.07-.78.07-1.63.1-3.19.14-4.86.14-33.2,0-62.3-17.72-78.39-44.2-.03-.07-.1-.14-.14-.24-.65-1.05-1.26-2.14-1.87-3.23-.14-.27-.31-.54-.44-.81-.61-1.15-1.22-2.31-1.77-3.5-.07-.07-.07-.14-.1-.2-.65-1.29-1.26-2.65-1.8-3.97-.61-1.39-1.15-2.78-1.66-4.18-.92-2.55-1.73-5.13-2.41-7.74-.31-1.09-.58-2.14-.81-3.23-.07-.27-.14-.51-.17-.78-.2-.81-.37-1.63-.51-2.44-.17-.78-.31-1.53-.41-2.31-.14-.68-.24-1.36-.34-2.07-.1-.71-.2-1.39-.24-2.1-.14-.75-.2-1.46-.24-2.21-.31-2.85-.44-5.77-.44-8.69,0-44.92,32.18-82.26,74.76-90.14-34.8,7.16-60.94,37.99-60.94,74.89s26.21,67.76,61.04,74.89c.31.07.61.14.92.17,4.69.92,9.54,1.39,14.5,1.39.24,0,.48,0,.71-.03.24.03.51.03.75.03,1.97,0,3.9,0,5.64-.24h.07c47.9-2.99,86-42.81,86-91.7V.2h30.73Z"/>
  <path class="cls-12" d="M128.41,188.14c-1.92.19-3.77.6-5.73.62-33.68-.25-60.97-27.54-61.22-61.22.25-31.22,23.85-57.04,54.33-60.73-47.45,3.44-84.82,43.02-84.82,91.46s41.06,91.88,91.7,91.88c1.96,0,3.8-.02,5.73-.15v-61.87Z"/>
  <path class="cls-10" d="M1247.69,31.32c-7.38-.74-14.75-.74-22.13,0-2.7.25-5.41.74-8.11,1.23-53.11,8.85-93.43,54.83-93.43,110.64,0,46.96,28.77,87.04,69.58,103.76.98.49,1.72.74,2.46.98,2.21.98,4.67,1.72,7.13,2.46.74.49,1.72.98,2.7,1.23-21.88-4.92-42.78-16.47-59.75-33.44-24.83-24.83-37.37-57.78-37.37-90.24s12.54-65.65,37.37-90.48C1170.98,12.63,1203.93-.15,1236.63.09c32.45-.25,65.4,12.54,90.23,37.37,5.9,5.66,9.59,11.06,12.29,14.75l-20.16,14.75-4.43,3.44c-2.95-3.69-6.15-7.87-9.34-11.31-11.8-11.8-26.06-19.92-41.06-24.59-2.7-.74-5.41-1.48-8.11-1.97-2.7-.49-5.65-.98-8.36-1.23Z"/>
  <path class="cls-10" d="M1339.15,203.43c-2.7,3.93-6.39,9.1-12.05,14.75h-.25c-18.19,18.19-40.32,29.5-63.93,34.42-4.67.98-9.59,1.97-14.75,2.46-3.93.25-7.62.49-11.56.49-4.18,0-8.11-.24-12.29-.49-3.2-.49-6.39-.98-9.59-1.48-.25-.25-.49-.25-.98-.25-1.72-.25-3.2-.49-4.92-.98-.98-.24-1.97-.49-2.95-.74s-1.97-.74-2.7-1.23c-2.46-.74-4.92-1.48-7.13-2.46-.74-.25-1.48-.49-2.46-.98-33.93-15-57.53-48.93-57.53-88.51,0-9.1,1.23-17.95,3.69-26.06,11.06-40.08,47.21-69.58,90.48-70.81-.74,0-1.23.24-1.97.49-2.95.25-6.15.74-9.1,1.48-36.63,7.87-63.93,40.32-63.93,79.17,0,44.99,36.39,81.38,81.38,81.38,31.23,0,58.27-17.46,72.04-43.27l5.9,4.43,9.59,7.13,9.59,7.13,5.41,3.93Z"/>
  <path class="cls-13" d="M1324.16,192.36c-13.28,35.9-47.21,61.71-87.53,63.19-4.18,0-8.11-.24-12.29-.49-3.2-.49-6.39-.98-9.59-1.48-.25-.25-.49-.25-.98-.25-1.72-.25-3.2-.49-4.92-.98-1.97-.49-3.93-.98-5.65-1.97-2.46-.74-4.92-1.48-7.13-2.46-.74-.25-1.48-.49-2.46-.98-33.93-15-57.53-48.93-57.53-88.51,0-9.1,1.23-17.95,3.69-26.06,11.06-40.08,47.21-69.58,90.48-70.81-15,1.48-29.26,7.87-40.57,19.18-13.03,13.03-19.42,30-19.42,46.96s6.39,33.93,19.42,46.96c13.03,13.03,29.75,19.42,46.96,19.42s33.93-6.39,46.96-19.42c1.23-1.23,3.2-3.93,6.15-7.87l24.83,18.44,9.59,7.13Z"/>
  <path class="cls-10" d="M454.03,30.83v30.74h-91.23c-3.69,0-7.12.98-9.83,2.95h-.24c-1,.48-1.97,1.48-2.47,2.21-1.22.98-1.95,1.71-2.21,2.69-.74,1.48-1.71,2.95-2.21,4.43-.74,1.73-.98,3.45-.98,5.42,0,1.22.24,2.45.5,3.69.24,2.21,1.22,4.43,2.69,6.14.5.98,1.24,1.97,2.21,2.71.74.98,1.73,1.71,2.71,2.21.5.48,1.24.98,1.97,1.22,1.16.7,2.53,1.18,3.93,1.44-17.36-.94-31.16-15.31-31.16-32.89,0-14.79,9.75-27.29,23.15-31.48t.04-.02c3.47-.88,7.1-1.36,10.85-1.44.34-.02.7-.02,1.06-.02h91.23Z"/>
  <path class="cls-10" d="M415.54,128.98c-.21-.04-.44-.06-.65-.1-1.48-.19-2.88-.6-4.38-.69-1.23-.25-2.71-.25-3.93-.25h-43.76c-6.15,0-12.05-1.23-17.46-3.44-.49,0-.98-.25-1.48-.49-25.33-8.36-43.52-32.21-43.52-60.24s19.67-53.6,46.47-61.22c.49-.25.98-.25,1.72-.49,2.7-.74,5.16-1.23,7.87-1.48l-5.16.74c-38.36,5.16-67.61,38.11-67.61,77.94s30.28,73.3,69.34,78.38c-.07.11-.18.19-.25.3,3.2.49,6.64.74,10.08.74h42.78c1.23,0,2.21,0,3.44.25.12,0,.31.09.49.12.06.03.12,0,.25.12h.25c4.65.35,9.09,1.45,13.28,3.04.16.06.33.1.49.16.24.06.42.22.65.3,2.75,1.13,5.17,2.79,7.64,4.38,2.28,1.48,4.43,3.1,6.42,4.94,5.8,5.37,10.53,11.91,13.08,19.63,1.72,4.67,2.7,10.08,2.7,15.49,0,22.87-15.74,42.04-37.13,46.96,30.24-4.92,53.11-31.22,53.11-62.45s-23.75-58.3-54.71-62.65Z"/>
  <path class="cls-14" d="M454.11,61.47h-91.29c-9.85.02-17.8,7.97-17.82,17.82.02,8.87,6.52,16.23,15.03,17.56-25.66-1.16-46.11-22.35-46.11-48.31S335.56.18,362.26.18C368.94.18,454.11,0,454.11,0v61.46Z"/>
  <path class="cls-10" d="M314.27,224.93v-30.74h91.23c3.69,0,7.12-.98,9.83-2.95h.24c1-.48,1.97-1.48,2.47-2.21,1.22-.98,1.95-1.71,2.21-2.69.74-1.48,1.71-2.95,2.21-4.43.74-1.73.98-3.45.98-5.42,0-1.22-.24-2.45-.5-3.69-.24-2.21-1.22-4.43-2.69-6.14-.5-.98-1.24-1.97-2.21-2.71-.74-.98-1.73-1.71-2.71-2.21-.5-.48-1.24-.98-1.97-1.22-1.16-.7-2.53-1.18-3.93-1.44,17.36.94,31.16,15.31,31.16,32.89,0,14.79-9.75,27.29-23.15,31.48t-.04.02c-3.47.88-7.1,1.36-10.85,1.44-.34.02-.7.02-1.06.02h-91.23Z"/>
  <path class="cls-16" d="M314.27,207.21c0-4.47-1.16-8.81,0-12.92h91.21c9.85-.02,17.8-7.97,17.82-17.82-.02-8.87-6.52-16.23-15.03-17.56,25.66,1.16,46.11,22.35,46.11,48.31s-21.65,48.37-48.35,48.37c-8.22,0-91.77.09-91.77.09v-48.46Z"/>
  <path class="cls-17" d="M646.91,188.14c1.92.19,3.77.6,5.73.62,33.68-.25,60.97-27.54,61.22-61.22-.25-31.22-23.85-57.04-54.33-60.73,47.45,3.44,84.82,43.02,84.82,91.46,0,50.65-41.06,91.7-91.7,91.7-1.96,0-3.8-.46-5.73-.58v-61.26Z"/>
  <path class="cls-10" d="M1019.47,188.05l27.98,13.01c-23.07,32.65-61.12,54.25-104.32,54.25-70.45,0-127.64-57.19-127.64-127.64S872.68.03,943.13.03c8.1,0,15.96.74,23.57,2.46,9.08,1.72,17.92,4.17,26.26,7.61.25.24.49.49.98.49,4.17,1.96,8.35,3.93,12.52,6.38l.25.25c3.68,1.96,7.36,4.42,10.8,6.87.49.24.74.49.98.49,3.68,2.95,7.12,5.65,10.31,8.59,3.44,3.19,6.63,6.38,9.82,9.82,2.7,3.19,5.4,6.38,7.86,9.82,2.95,4.17,5.65,8.34,8.1,12.76,7.86,13.99-2.7,31.17-18.9,31.17h-.49c-10.31-31.17-36.33-55.23-68.48-62.84-7.36-1.96-15.22-2.95-23.07-2.95-53.27,0-96.71,43.45-96.71,96.96s43.45,96.71,96.71,96.71c30.68,0,57.93-14.24,75.85-36.57Z"/>
  <path class="cls-18" d="M1001.47,96.81h-116.54c-4.88,9.22-7.91,19.57-7.93,30.73.02,11.16,3.05,21.51,7.94,30.73h116.53c4.89-9.22,7.92-19.57,7.94-30.73-.02-11.16-3.05-21.51-7.94-30.73Z"/>
  <path class="cls-10" d="M1070.77,127.67v.25c0,.11,0,.21,0,.32-.05,16.73-13.99,30.12-30.73,30.12h-155.09c-4.91-9.08-7.86-19.39-7.86-30.44h147.52c20.87,0,37.8-16.94,37.8-38.05,0-4.91-.98-9.57-2.7-13.75,7.12,15.71,11.05,33.14,11.05,51.55Z"/>
  <path class="cls-19" d="M1500.17,97.1h-42.75c-9.84-.02-17.8-7.97-17.81-17.81.02-9.84,7.97-17.8,17.81-17.81h91.3V0h-91.3c-43.8.01-79.26,35.48-79.28,79.28.01,43.8,35.48,79.26,79.28,79.28h42.75c9.82.02,17.8,8,17.81,17.81-.02,9.83-8,17.81-17.81,17.83h-91.3v61.46h91.3c43.8-.02,79.26-35.49,79.28-79.29-.02-43.8-35.48-79.25-79.28-79.28Z"/>
  <path class="cls-10" d="M1548.63,30.83v30.74h-91.23c-3.69,0-7.12.98-9.83,2.95h-.24c-1,.48-1.97,1.48-2.47,2.21-1.22.98-1.95,1.71-2.21,2.69-.74,1.48-1.71,2.95-2.21,4.43-.74,1.73-.98,3.45-.98,5.42,0,1.22.24,2.45.5,3.69.24,2.21,1.22,4.43,2.69,6.14.5.98,1.24,1.97,2.21,2.71.74.98,1.73,1.71,2.71,2.21.5.48,1.24.98,1.97,1.22,1.16.7,2.53,1.18,3.93,1.44-17.36-.94-31.16-15.31-31.16-32.89,0-14.79,9.75-27.29,23.15-31.48t.04-.02c3.47-.88,7.1-1.36,10.85-1.44.34-.02.7-.02,1.06-.02h91.23Z"/>
  <path class="cls-10" d="M1510.14,128.98c-.21-.04-.44-.06-.65-.1-1.48-.19-2.88-.6-4.38-.69-1.23-.25-2.71-.25-3.93-.25h-43.76c-6.15,0-12.05-1.23-17.46-3.44-.49,0-.98-.25-1.48-.49-25.33-8.36-43.52-32.21-43.52-60.24s19.67-53.6,46.47-61.22c.49-.25.98-.25,1.72-.49,2.7-.74,5.16-1.23,7.87-1.48l-5.16.74c-38.36,5.16-67.61,38.11-67.61,77.94s30.28,73.3,69.34,78.38c-.07.11-.18.19-.25.3,3.2.49,6.64.74,10.08.74h42.78c1.23,0,2.21,0,3.44.25.12,0,.31.09.49.12.06.03.12,0,.25.12h.25c4.65.35,9.09,1.45,13.28,3.04.16.06.33.1.49.16.24.06.42.22.65.3,2.75,1.13,5.17,2.79,7.64,4.38,2.28,1.48,4.43,3.1,6.42,4.94,5.8,5.37,10.53,11.91,13.08,19.63,1.72,4.67,2.7,10.08,2.7,15.49,0,22.87-15.74,42.04-37.13,46.96,30.24-4.92,53.11-31.22,53.11-62.45s-23.75-58.3-54.71-62.65Z"/>
  <path class="cls-20" d="M1548.71,61.47h-91.29c-9.85.02-17.8,7.97-17.82,17.82.02,8.87,6.52,16.23,15.03,17.56-25.66-1.16-46.11-22.35-46.11-48.31S1430.17.18,1456.86.18c6.68,0,91.85-.18,91.85-.18v61.46Z"/>
  <path class="cls-10" d="M1408.87,224.93v-30.74h91.23c3.69,0,7.12-.98,9.83-2.95h.24c1-.48,1.97-1.48,2.47-2.21,1.22-.98,1.95-1.71,2.21-2.69.74-1.48,1.71-2.95,2.21-4.43.74-1.73.98-3.45.98-5.42,0-1.22-.24-2.45-.5-3.69-.24-2.21-1.22-4.43-2.69-6.14-.5-.98-1.24-1.97-2.21-2.71-.74-.98-1.73-1.71-2.71-2.21-.5-.48-1.24-.98-1.97-1.22-1.16-.7-2.53-1.18-3.93-1.44,17.36.94,31.16,15.31,31.16,32.89,0,14.79-9.75,27.29-23.15,31.48t-.04.02c-3.47.88-7.1,1.36-10.85,1.44-.34.02-.7.02-1.06.02h-91.23Z"/>
  <path class="cls-15" d="M1408.87,207.21c0-4.47-1.16-8.81,0-12.92h91.21c9.85-.02,17.8-7.97,17.82-17.82-.02-8.87-6.52-16.23-15.03-17.56,25.66,1.16,46.11,22.35,46.11,48.31s-21.65,48.37-48.35,48.37c-8.22,0-91.77.09-91.77.09v-48.46Z"/>
</svg>