<?xml version="1.0" encoding="UTF-8"?>
<svg id="Layer_1" data-name="Layer 1" xmlns="http://www.w3.org/2000/svg" xmlns:xlink="http://www.w3.org/1999/xlink" viewBox="0 0 1080 1080">
  <defs>
    <style>
      .cls-1 {
        fill: none;
      }

      .cls-2 {
        fill: url(#linear-gradient-4);
      }

      .cls-3 {
        fill: url(#linear-gradient-3);
      }

      .cls-4 {
        fill: url(#linear-gradient-2);
      }

      .cls-5 {
        fill: url(#linear-gradient);
      }

      .cls-6 {
        fill: #15142f;
      }

      .cls-7 {
        fill: #fff;
      }

      .cls-8 {
        fill: #c8cccd;
      }

      .cls-9 {
        opacity: .3;
      }
    </style>
    <linearGradient id="linear-gradient" x1="444.84" y1="138.94" x2="956.87" y2="393.7" gradientTransform="translate(120.29 -54.16) rotate(45)" gradientUnits="userSpaceOnUse">
      <stop offset="0" stop-color="#d5e9f5"/>
      <stop offset="1" stop-color="#2586af"/>
    </linearGradient>
    <linearGradient id="linear-gradient-2" x1="535.6" y1="-43.49" x2="1047.64" y2="211.27" xlink:href="#linear-gradient"/>
    <linearGradient id="linear-gradient-3" x1="247.91" y1="603.88" x2="555.63" y2="434.88" gradientTransform="matrix(1,0,0,1,0,0)" xlink:href="#linear-gradient"/>
    <linearGradient id="linear-gradient-4" x1="622.93" y1="840.64" x2="622.93" y2="265.49" gradientUnits="userSpaceOnUse">
      <stop offset="0" stop-color="#50b1db"/>
      <stop offset="1" stop-color="#b0dbf0"/>
    </linearGradient>
  </defs>
  <circle class="cls-6" cx="540" cy="540" r="540"/>
  <g>
    <g>
      <path class="cls-8" d="M603.52,610.56l-99.02-.09-55.64-.05c-7.82,0-13.97-1.4-19.28-3.63-5.31-2.24-9.92-5.45-14.11-9.64-8.66-8.38-14.39-21.66-14.67-33.95-.13-2.85.04-5.63.42-8.36.2-1.44.65-2.82,1-4.22.42-1.68.71-3.39,1.37-5.03,2.24-5.59,5.59-11.18,11.46-17.05l-.47.47-70.06,70.06c-44.33,44.33-36.32,120.46,18.54,150.79,1.81,1,3.5,1.84,5.05,2.5,13.2,5.59,27.23,9.72,41.75,12.45,12.68,2.39,25.72,3.75,39,3.75l41.62-.04,132.46-.1-19.41-157.88Z"/>
      <g>
        <path class="cls-1" d="M603.52,455.76c.14-7.96-1.4-13.97-3.63-19.28-1.36-3.23-3.16-6.17-5.2-8.99-1.33-1.79-2.68-3.56-4.3-5.19-6.42-6.48-15.41-11.45-24.76-13.54-6.01-1.35-11.82-1.2-17.48-.37-3.2.47-6.42.88-9.45,2.1-5.59,2.24-11.04,5.45-16.91,11.32l-106.74,106.74c-5.87,5.87-9.22,11.46-11.46,17.05-.65,1.63-.95,3.34-1.37,5.03-.35,1.4-.79,2.79-1,4.22-.38,2.73-.55,5.51-.42,8.36.28,12.29,6.01,25.57,14.67,33.95,4.19,4.19,8.8,7.41,14.11,9.64,5.31,2.24,11.46,3.63,19.28,3.63l55.64.05h99.12v-154.7c0-.38-.09-.65-.1-1.03v1.01Z"/>
        <path class="cls-1" d="M414.98,528.53c-.17.17-.24.33-.41.5l.47-.47-.05-.05-.02.02Z"/>
        <path class="cls-5" d="M401.22,554.84c.21-1.43.65-2.82,1-4.22-.35,1.4-.8,2.79-1,4.22Z"/>
        <path class="cls-4" d="M565.66,408.68c-6.06-1.25-11.86-1.11-17.51-.28,5.66-.83,11.47-.98,17.48.37,9.35,2.09,18.34,7.06,24.76,13.54,1.62,1.63,2.97,3.4,4.3,5.19-1.32-1.82-2.66-3.62-4.3-5.26-6.43-6.43-15.37-11.46-24.73-13.55Z"/>
        <path class="cls-3" d="M368.1,752.37c-1.54-.65-3.24-1.49-5.05-2.5-54.87-30.33-62.88-106.46-18.54-150.79l70.06-70.06c.17-.17.24-.33.41-.5l.02-.02.04.05,106.74-106.74c5.87-5.87,11.32-9.08,16.91-11.32,3.03-1.21,6.25-1.63,9.45-2.1,5.65-.83,11.45-.97,17.51.28,9.36,2.1,18.3,7.13,24.73,13.55,1.64,1.64,2.98,3.45,4.3,5.26,2.04,2.81,3.84,5.76,5.2,8.99,2.23,5.31,3.77,11.32,3.63,19.28v-1.01l.07-101.66c.04-60.94-57.36-108.04-116.12-91.91-2.03.56-3.88,1.15-5.5,1.78-26.13,9.92-50.86,25.99-71.95,47.08l-106.05,106.05-.04-.04-.72.72c-21.19,21.14-37.13,45.95-47.14,72.04-15.1,39.23-16.97,80.72-8.29,118.73,8.69,38.07,27.75,73.27,55.9,101.48,17.93,17.94,39.67,32.97,64.38,43.39"/>
      </g>
      <path class="cls-2" d="M745.55,374.9c-10.42-24.71-25.45-46.44-43.39-64.37-37.65-37.48-87.57-59.04-140.44-60.96-25.67-.89-52.11,3.17-77.54,12.62,0,.01.02.03.03.04,1.06-.36,2.06-.72,3.26-1.06,58.77-16.13,116.16,30.97,116.12,91.91l-.07,101.66c0,.38.1.64.1,1.03v275.69c0,54.72,44.36,99.09,99.09,99.09h17.66c22.82,0,41.33-18.5,41.33-41.33v-333.45c.03-28.61-5.69-56.2-16.14-80.87Z"/>
    </g>
    <g class="cls-9">
      <path class="cls-7" d="M610.8,768.48h-120.33l-41.69.2c-13.24,0-26.28-1.38-38.92-3.75-14.62-2.77-28.65-6.92-41.69-12.45h-.2c-1.58-.79-3.16-1.58-4.94-2.57-48.8-27.07-60.46-89.9-31.61-134.75,18.38,44.26,60.86,78.64,117.56,78.64h154.71v37.74c0,13.04,2.57,25.49,7.11,36.95Z"/>
      <path class="cls-7" d="M602.89,342.1c-44.06-17.39-97.61-11.26-137.12,28.25l-106.69,106.7c-39.91,39.91-45.84,94.05-27.66,138.11-28.85,44.85-17.19,107.68,31.61,134.75,1.78.99,3.36,1.78,4.94,2.57-24.7-10.47-46.43-25.49-64.41-43.47-28.06-28.25-47.03-63.43-55.72-101.56-8.69-37.94-6.92-79.43,8.3-118.55,9.88-26.28,25.88-50.98,47.03-72.12l.79-.59,106.1-106.1c20.94-21.14,45.84-37.15,71.92-47.03.59-.4,1.38-.59,2.17-.79l1.19-.4c.79-.2,1.38-.4,2.17-.59,55.13-15.21,109.07,25.29,115.39,80.81Z"/>
      <path class="cls-7" d="M761.75,455.71v333.52c0,22.92-18.57,41.3-41.49,41.3h-17.59c-6.91,0-13.44-.59-19.96-1.98v-368.49c0-57.1-34.97-99.78-79.82-117.96-6.32-55.52-60.26-96.03-115.39-80.81,24.5-8.89,49.79-12.65,74.09-11.66,52.95,1.98,102.94,23.51,140.48,60.86,17.98,17.98,33,39.71,43.47,64.41,10.47,24.7,16.2,52.36,16.2,80.81Z"/>
      <path class="cls-7" d="M610.8,768.48h-120.33l-41.69.2c-13.24,0-26.28-1.38-38.92-3.75-14.62-2.77-28.65-6.92-41.69-12.45h-.2c-1.58-.79-3.16-1.58-4.94-2.57-48.8-27.07-60.46-89.9-31.61-134.75,18.38,44.26,60.86,78.64,117.56,78.64h154.71v37.74c0,13.04,2.57,25.49,7.11,36.95Z"/>
      <path class="cls-7" d="M602.89,342.1c-44.06-17.39-97.61-11.26-137.12,28.25l-106.69,106.7c-39.91,39.91-45.84,94.05-27.66,138.11-28.85,44.85-17.19,107.68,31.61,134.75,1.78.99,3.36,1.78,4.94,2.57-24.7-10.47-46.43-25.49-64.41-43.47-28.06-28.25-47.03-63.43-55.72-101.56-8.69-37.94-6.92-79.43,8.3-118.55,9.88-26.28,25.88-50.98,47.03-72.12l.79-.59,106.1-106.1c20.94-21.14,45.84-37.15,71.92-47.03.59-.4,1.38-.59,2.17-.79l1.19-.4c.79-.2,1.38-.4,2.17-.59,55.13-15.21,109.07,25.29,115.39,80.81Z"/>
      <path class="cls-7" d="M761.75,455.71v333.52c0,22.92-18.57,41.3-41.49,41.3h-17.59c-6.91,0-13.44-.59-19.96-1.98v-368.49c0-57.1-34.97-99.78-79.82-117.96-6.32-55.52-60.26-96.03-115.39-80.81,24.5-8.89,49.79-12.65,74.09-11.66,52.95,1.98,102.94,23.51,140.48,60.86,17.98,17.98,33,39.71,43.47,64.41,10.47,24.7,16.2,52.36,16.2,80.81Z"/>
    </g>
  </g>
</svg>